<mxfile host="app.diagrams.net" modified="2023-05-31T14:02:50.133Z" agent="Mozilla/5.0 (Windows NT 10.0; Win64; x64) AppleWebKit/537.36 (KHTML, like Gecko) Chrome/113.0.0.0 Safari/537.36" etag="aIMYcE13MLJEas-X9QWK" version="21.3.6" type="google">
  <diagram name="Page-1" id="3hXui0sTjG7f6bwZCkGo">
    <mxGraphModel grid="1" page="1" gridSize="10" guides="1" tooltips="1" connect="1" arrows="1" fold="1" pageScale="1" pageWidth="850" pageHeight="1100" math="0" shadow="0">
      <root>
        <mxCell id="0" />
        <mxCell id="1" parent="0" />
        <mxCell id="reVBE2eYXczitT7VZze5-2" value="User" style="swimlane;startSize=20;html=1;" vertex="1" parent="1">
          <mxGeometry x="150" y="40" width="180" height="460" as="geometry" />
        </mxCell>
        <mxCell id="reVBE2eYXczitT7VZze5-9" style="edgeStyle=orthogonalEdgeStyle;rounded=0;orthogonalLoop=1;jettySize=auto;html=1;exitX=0.5;exitY=1;exitDx=0;exitDy=0;" edge="1" parent="reVBE2eYXczitT7VZze5-2" source="reVBE2eYXczitT7VZze5-5" target="reVBE2eYXczitT7VZze5-6">
          <mxGeometry relative="1" as="geometry" />
        </mxCell>
        <mxCell id="reVBE2eYXczitT7VZze5-5" value="User navigates to the website" style="rounded=1;whiteSpace=wrap;html=1;" vertex="1" parent="reVBE2eYXczitT7VZze5-2">
          <mxGeometry x="20" y="110" width="100" height="40" as="geometry" />
        </mxCell>
        <mxCell id="reVBE2eYXczitT7VZze5-6" value="Enters query in the live chat box" style="rounded=1;whiteSpace=wrap;html=1;" vertex="1" parent="reVBE2eYXczitT7VZze5-2">
          <mxGeometry x="20" y="170" width="100" height="50" as="geometry" />
        </mxCell>
        <mxCell id="reVBE2eYXczitT7VZze5-3" value="System" style="swimlane;startSize=20;html=1;" vertex="1" parent="1">
          <mxGeometry x="330" y="40" width="190" height="460" as="geometry" />
        </mxCell>
        <mxCell id="reVBE2eYXczitT7VZze5-13" style="edgeStyle=orthogonalEdgeStyle;rounded=0;orthogonalLoop=1;jettySize=auto;html=1;exitX=0.5;exitY=1;exitDx=0;exitDy=0;" edge="1" parent="reVBE2eYXczitT7VZze5-3" source="reVBE2eYXczitT7VZze5-7" target="reVBE2eYXczitT7VZze5-10">
          <mxGeometry relative="1" as="geometry" />
        </mxCell>
        <mxCell id="reVBE2eYXczitT7VZze5-7" value="proceeds query, sends it to client support&amp;nbsp;" style="rounded=1;whiteSpace=wrap;html=1;" vertex="1" parent="reVBE2eYXczitT7VZze5-3">
          <mxGeometry x="30" y="80" width="110" height="50" as="geometry" />
        </mxCell>
        <mxCell id="reVBE2eYXczitT7VZze5-15" style="edgeStyle=orthogonalEdgeStyle;rounded=0;orthogonalLoop=1;jettySize=auto;html=1;exitX=0.5;exitY=1;exitDx=0;exitDy=0;" edge="1" parent="reVBE2eYXczitT7VZze5-3" source="reVBE2eYXczitT7VZze5-10" target="reVBE2eYXczitT7VZze5-14">
          <mxGeometry relative="1" as="geometry" />
        </mxCell>
        <mxCell id="reVBE2eYXczitT7VZze5-10" value="is a client support available&amp;nbsp;" style="rhombus;whiteSpace=wrap;html=1;" vertex="1" parent="reVBE2eYXczitT7VZze5-3">
          <mxGeometry x="30" y="160" width="105" height="80" as="geometry" />
        </mxCell>
        <mxCell id="reVBE2eYXczitT7VZze5-14" value="Wait for an available client support&amp;nbsp;" style="rounded=1;whiteSpace=wrap;html=1;" vertex="1" parent="reVBE2eYXczitT7VZze5-3">
          <mxGeometry x="12.5" y="290" width="140" height="50" as="geometry" />
        </mxCell>
        <mxCell id="reVBE2eYXczitT7VZze5-4" value="Client Support" style="swimlane;startSize=20;html=1;" vertex="1" parent="1">
          <mxGeometry x="520" y="40" width="250" height="460" as="geometry" />
        </mxCell>
        <mxCell id="reVBE2eYXczitT7VZze5-18" style="edgeStyle=orthogonalEdgeStyle;rounded=0;orthogonalLoop=1;jettySize=auto;html=1;exitX=0.5;exitY=1;exitDx=0;exitDy=0;" edge="1" parent="reVBE2eYXczitT7VZze5-4" source="reVBE2eYXczitT7VZze5-8" target="reVBE2eYXczitT7VZze5-17">
          <mxGeometry relative="1" as="geometry" />
        </mxCell>
        <mxCell id="reVBE2eYXczitT7VZze5-8" value="a representative responds to user query" style="rounded=1;whiteSpace=wrap;html=1;" vertex="1" parent="reVBE2eYXczitT7VZze5-4">
          <mxGeometry x="60" y="170" width="110" height="60" as="geometry" />
        </mxCell>
        <mxCell id="reVBE2eYXczitT7VZze5-17" value="" style="ellipse;html=1;shape=endState;fillColor=#000000;strokeColor=#ff0000;" vertex="1" parent="reVBE2eYXczitT7VZze5-4">
          <mxGeometry x="100" y="290" width="30" height="30" as="geometry" />
        </mxCell>
        <mxCell id="reVBE2eYXczitT7VZze5-11" style="edgeStyle=orthogonalEdgeStyle;rounded=0;orthogonalLoop=1;jettySize=auto;html=1;exitX=1;exitY=0.5;exitDx=0;exitDy=0;" edge="1" parent="1" source="reVBE2eYXczitT7VZze5-10" target="reVBE2eYXczitT7VZze5-8">
          <mxGeometry relative="1" as="geometry" />
        </mxCell>
        <mxCell id="reVBE2eYXczitT7VZze5-12" style="edgeStyle=orthogonalEdgeStyle;rounded=0;orthogonalLoop=1;jettySize=auto;html=1;exitX=1;exitY=0.5;exitDx=0;exitDy=0;entryX=0;entryY=0.5;entryDx=0;entryDy=0;" edge="1" parent="1" source="reVBE2eYXczitT7VZze5-6" target="reVBE2eYXczitT7VZze5-7">
          <mxGeometry relative="1" as="geometry" />
        </mxCell>
        <mxCell id="reVBE2eYXczitT7VZze5-16" style="edgeStyle=orthogonalEdgeStyle;rounded=0;orthogonalLoop=1;jettySize=auto;html=1;exitX=0.5;exitY=1;exitDx=0;exitDy=0;entryX=0.75;entryY=1;entryDx=0;entryDy=0;" edge="1" parent="1" source="reVBE2eYXczitT7VZze5-14" target="reVBE2eYXczitT7VZze5-6">
          <mxGeometry relative="1" as="geometry" />
        </mxCell>
      </root>
    </mxGraphModel>
  </diagram>
</mxfile>
